<svg width="16" height="18" viewBox="0 0 16 18" fill="none" xmlns="http://www.w3.org/2000/svg">
<path d="M13.8333 8.16667H2.16667C1.24619 8.16667 0.5 8.91286 0.5 9.83334V15.6667C0.5 16.5871 1.24619 17.3333 2.16667 17.3333H13.8333C14.7538 17.3333 15.5 16.5871 15.5 15.6667V9.83334C15.5 8.91286 14.7538 8.16667 13.8333 8.16667Z" stroke="white" stroke-linecap="round" stroke-linejoin="round"/>
<path d="M3.83337 8.16667V4.83334C3.83337 3.72827 4.27236 2.66846 5.05376 1.88706C5.83516 1.10566 6.89497 0.666672 8.00004 0.666672C9.10511 0.666672 10.1649 1.10566 10.9463 1.88706C11.7277 2.66846 12.1667 3.72827 12.1667 4.83334V8.16667" stroke="white" stroke-linecap="round" stroke-linejoin="round"/>
</svg>
